<?xml version="1.0" encoding="UTF-8"?>
<svg version="1.1" xmlns="http://www.w3.org/2000/svg" width="2051" height="496">
<path d="M0 0 C676.83 0 1353.66 0 2051 0 C2051 163.68 2051 327.36 2051 496 C1374.17 496 697.34 496 0 496 C0 332.32 0 168.64 0 0 Z " fill="#1A1A19" transform="translate(0,0)"/>
<path d="M0 0 C2.98585626 0.02142493 5.96929434 0.00007031 8.95507812 -0.02539062 C42.15629796 -0.07529115 73.23814702 9.08123577 97.80664062 32.20898438 C107.29452193 42.06236994 116.79569209 56.42210751 118.1875 70.23706055 C118.31191467 71.44334358 118.31191467 71.44334358 118.43884277 72.67399597 C118.49834106 73.28366714 118.55783936 73.89333832 118.61914062 74.52148438 C112.50367659 75.74958354 106.38794256 76.97632685 100.27197266 78.2019043 C98.19865877 78.61756247 96.12541452 79.03356812 94.05224609 79.44995117 C88.13986149 80.63728602 82.22634918 81.81863394 76.31054688 82.98883057 C74.58241061 83.33084447 72.85452319 83.67411948 71.12695312 84.01898193 C68.92753981 84.45671529 66.72680813 84.88693085 64.52539062 85.31445312 C63.32205078 85.55059326 62.11871094 85.7867334 60.87890625 86.0300293 C57.73474289 86.50405572 54.79291406 86.61470643 51.61914062 86.52148438 C51.18214844 85.16216797 51.18214844 85.16216797 50.73632812 83.77539062 C46.46434768 71.08035441 41.44709871 61.87003299 29.32226562 55.27148438 C20.37696155 51.07644522 12.08838787 50.15820606 2.30664062 50.14648438 C1.24251953 50.12199219 0.17839844 50.0975 -0.91796875 50.07226562 C-13.78251868 50.02517148 -25.55448587 54.93779393 -35.06835938 63.64648438 C-49.2945462 78.91279335 -52.06322411 99.8304637 -51.63085938 119.83789062 C-50.93478954 136.88116056 -45.46941994 153.85599248 -32.95898438 165.84179688 C-18.64985838 177.88457062 -2.41772742 178.78923121 15.61914062 177.52148438 C28.21081169 175.89641659 38.76773507 170.70543525 46.92773438 160.96289062 C50.42845623 155.90988564 52.14108401 150.43371085 53.61914062 144.52148438 C35.46914062 144.19148437 17.31914063 143.86148438 -1.38085938 143.52148438 C-1.38085938 130.32148438 -1.38085938 117.12148437 -1.38085938 103.52148438 C39.53914063 103.52148438 80.45914062 103.52148438 122.61914062 103.52148438 C122.61914062 142.46148437 122.61914062 181.40148437 122.61914062 221.52148438 C107.76914063 221.52148438 92.91914062 221.52148438 77.61914062 221.52148438 C76.62914062 215.95273437 76.62914062 215.95273437 75.61914062 210.27148438 C75.4103125 209.10713867 75.20148438 207.94279297 74.98632812 206.74316406 C74.82390625 205.81922852 74.66148437 204.89529297 74.49414062 203.94335938 C74.3265625 203.00073242 74.15898438 202.05810547 73.98632812 201.08691406 C73.61914062 198.52148438 73.61914062 198.52148438 73.61914062 194.52148438 C72.95914062 194.52148438 72.29914063 194.52148438 71.61914062 194.52148438 C71.24208984 195.38 71.24208984 195.38 70.85742188 196.25585938 C63.2407699 210.19168948 45.09607893 217.84921265 30.62550354 222.10826111 C18.5516934 225.35125748 6.95450877 226.20926319 -5.50585938 226.08398438 C-6.39728638 226.0803891 -7.28871338 226.07679382 -8.20715332 226.0730896 C-22.75010437 225.98934681 -36.40018208 224.82556609 -50.38085938 220.52148438 C-51.04311523 220.32393555 -51.70537109 220.12638672 -52.38769531 219.92285156 C-65.4457317 215.88622419 -77.10314698 208.37855734 -87.38085938 199.52148438 C-88.115625 198.94269531 -88.85039063 198.36390625 -89.60742188 197.76757812 C-101.8857181 187.7236715 -109.43858146 173.97387388 -115.38085938 159.52148438 C-115.80109375 158.51859375 -116.22132813 157.51570312 -116.65429688 156.48242188 C-125.33212926 133.31978656 -126.00217538 102.92693179 -118.38085938 79.52148438 C-118.16123535 78.8345752 -117.94161133 78.14766602 -117.71533203 77.43994141 C-108.20635577 48.46885662 -89.64480734 27.07453429 -62.63085938 13.03466797 C-42.89127632 3.10677327 -21.92425628 -0.18616286 0 0 Z " fill="#F1F2EC" transform="translate(1045.380859375,137.478515625)"/>
<path d="M0 0 C22.44 0 44.88 0 68 0 C74.38873649 9.58310474 80.75880114 19.17394751 87.0625 28.8125 C87.88504433 30.06920382 88.70763654 31.3258763 89.53027344 32.58251953 C91.61833504 35.77259254 93.70558817 38.96319357 95.7925415 42.1539917 C96.9557599 43.93236405 98.11919224 45.7105962 99.28271484 47.48876953 C109.20291715 62.64974312 119.11556486 77.81567728 129 93 C129.75337646 94.15701416 129.75337646 94.15701416 130.52197266 95.33740234 C130.99554199 96.06523926 131.46911133 96.79307617 131.95703125 97.54296875 C132.35897705 98.16067139 132.76092285 98.77837402 133.17504883 99.41479492 C139.53171378 109.22940352 145.75378998 119.11016746 152 129 C152.33 86.43 152.66 43.86 153 0 C174.12 0 195.24 0 217 0 C217 71.61 217 143.22 217 217 C194.23 217 171.46 217 148 217 C135 197 135 197 128.75 187.375 C123.3168366 179.01160784 117.85997733 170.66378365 112.39959717 162.31814575 C107.19106222 154.3570164 101.99405111 146.38859079 96.81469727 138.40844727 C93.97919692 134.04067343 91.13683064 129.67754753 88.28515625 125.3203125 C87.64465332 124.3408667 87.00415039 123.3614209 86.34423828 122.35229492 C85.13941568 120.51050528 83.93350393 118.66942724 82.72607422 116.8293457 C76.70448736 107.62020982 70.87852927 98.30767134 65 89 C64.67 131.24 64.34 173.48 64 217 C42.88 217 21.76 217 0 217 C0 145.39 0 73.78 0 0 Z " fill="#F1F2EC" transform="translate(1335,142)"/>
<path d="M0 0 C22.44 0 44.88 0 68 0 C79.31640625 16.97460937 79.31640625 16.97460937 84.8125 25.4375 C90.53026239 34.22298438 96.27041932 42.99343118 102.02416992 51.75537109 C105.59805348 57.1979055 109.17037753 62.64146409 112.74298096 68.08483887 C113.55879896 69.3277977 114.37467292 70.5707198 115.19061279 71.81359863 C124.09164706 85.37253028 132.93857008 98.96255693 141.6496582 112.64428711 C142.26413818 113.60858643 142.87861816 114.57288574 143.51171875 115.56640625 C144.04240967 116.40115479 144.57310059 117.23590332 145.11987305 118.09594727 C147.70601899 122.09052018 150.36037511 126.04056266 153 130 C153 87.1 153 44.2 153 0 C174.12 0 195.24 0 217 0 C217 71.61 217 143.22 217 217 C194.23 217 171.46 217 148 217 C132.58333333 193.36111111 132.58333333 193.36111111 125 181.625 C120.85921964 175.23081154 116.68273077 168.85989427 112.5112915 162.48568726 C107.31296051 154.54215261 102.12722316 146.59065108 96.96020508 138.62670898 C93.90819048 133.92580147 90.84395978 129.23315988 87.76953125 124.546875 C87.02342252 123.40886399 86.27732884 122.27084311 85.53125 121.1328125 C84.10992176 118.96491551 82.68648482 116.79845692 81.26171875 114.6328125 C75.70786137 106.16264391 70.37246036 97.59593657 65 89 C64.67 131.24 64.34 173.48 64 217 C42.88 217 21.76 217 0 217 C0 145.39 0 73.78 0 0 Z " fill="#F1F2EC" transform="translate(697,142)"/>
<path d="M0 0 C3.13089527 0.00313959 6.26082382 -0.0202949 9.39160156 -0.0456543 C39.31795948 -0.14133962 73.15595189 4.64160118 95.66503906 26.31567383 C96.86386719 27.45456055 96.86386719 27.45456055 98.08691406 28.61645508 C106.93150558 37.68364537 114.80480497 51.35471571 114.66503906 64.31567383 C104.18239005 66.93487317 93.63823804 68.73316687 82.97753906 70.44067383 C80.51722548 70.83599968 78.05715473 71.23262174 75.59770203 71.63327026 C74.08130194 71.88021912 72.56439864 72.12410265 71.04695129 72.36453247 C67.24061961 72.95370411 67.24061961 72.95370411 63.66503906 74.31567383 C61.29380661 74.54597338 58.91761964 74.72687325 56.54003906 74.87817383 C55.25871094 74.96196289 53.97738281 75.04575195 52.65722656 75.13208008 C51.66980469 75.19266602 50.68238281 75.25325195 49.66503906 75.31567383 C49.33632813 74.26379883 49.33632813 74.26379883 49.00097656 73.19067383 C45.40581797 62.43442698 40.69228605 55.8315729 30.66503906 50.31567383 C17.13043262 44.30029319 -2.535392 44.11221646 -16.33496094 49.31567383 C-21.79248271 51.85112876 -25.71086141 54.73946234 -28.33496094 60.31567383 C-29.04169048 64.36921452 -28.56180605 67.59260505 -27.33496094 71.50317383 C-20.28908993 81.41142993 -6.24267798 82.90555251 4.85253906 84.87817383 C5.98240234 85.08635742 7.11226563 85.29454102 8.27636719 85.5090332 C14.03488318 86.55454635 19.79366001 87.4953635 25.59082031 88.30004883 C94.02834036 97.8659695 94.02834036 97.8659695 113.75488281 122.97583008 C115.59886339 125.68527299 117.17062619 128.39994437 118.66503906 131.31567383 C119.09816406 132.1587207 119.53128906 133.00176758 119.97753906 133.87036133 C126.02871767 148.36797675 124.03186564 167.85366453 118.66503906 182.31567383 C117.01115223 185.98036533 115.09159247 189.1148045 112.66503906 192.31567383 C112.03984375 193.14454102 111.41464844 193.9734082 110.77050781 194.82739258 C102.42199015 204.94164495 90.81650231 211.66087944 78.66503906 216.31567383 C77.60285156 216.73461914 76.54066406 217.15356445 75.44628906 217.58520508 C42.503367 229.23489226 -1.31326118 229.58829995 -35.33496094 222.31567383 C-36.56158447 222.05826416 -36.56158447 222.05826416 -37.81298828 221.7956543 C-58.60954994 217.25490259 -76.98026177 209.38066169 -92.33496094 194.31567383 C-93.29208984 193.3952832 -93.29208984 193.3952832 -94.26855469 192.45629883 C-101.98807679 184.41011543 -109.4318999 170.6185837 -109.52246094 159.25317383 C-109.46058594 158.28379883 -109.39871094 157.31442383 -109.33496094 156.31567383 C-102.84402117 154.1927326 -96.2759642 153.35059222 -89.52246094 152.44067383 C-78.52815717 150.92201529 -67.55719182 149.29835241 -56.59936523 147.53491211 C-55.58527588 147.37490723 -54.57118652 147.21490234 -53.52636719 147.05004883 C-52.64150635 146.90792969 -51.75664551 146.76581055 -50.8449707 146.61938477 C-48.31551039 146.31332031 -45.88018817 146.26197585 -43.33496094 146.31567383 C-43.12742187 147.00532227 -42.91988281 147.6949707 -42.70605469 148.40551758 C-39.4883016 158.22033767 -34.77067602 165.54537001 -25.86621094 171.03442383 C-14.81799377 176.62673128 -3.9162593 177.50234987 8.24023438 177.50097656 C10.39506063 177.50315364 12.54936624 177.5213172 14.70410156 177.5402832 C24.20443503 177.58029776 33.44259215 177.36869715 42.10253906 173.00317383 C42.905625 172.61516602 43.70871094 172.2271582 44.53613281 171.82739258 C47.20886148 169.92951002 48.2993465 168.2918529 49.66503906 165.31567383 C50.43619745 160.09124946 50.54892165 155.08343901 48.16503906 150.31567383 C44.89528683 147.69987205 41.50468846 145.95306621 37.66503906 144.31567383 C36.930354 143.99646973 36.19566895 143.67726563 35.4387207 143.34838867 C24.10915362 139.13009197 11.0527936 138.24691216 -0.84512329 136.44113159 C-47.18418901 129.35711634 -47.18418901 129.35711634 -66.33496094 120.31567383 C-67.32367188 119.85547852 -68.31238281 119.3952832 -69.33105469 118.92114258 C-82.09340407 112.49571563 -92.555033 102.12139512 -97.60839844 88.67504883 C-101.72616685 75.30337075 -101.52775924 57.0482197 -95.88183594 44.21801758 C-85.09169272 23.97287513 -68.62546315 12.64460543 -46.90917969 5.90942383 C-45.36556329 5.45481037 -43.81998728 5.00679421 -42.27246094 4.56567383 C-41.22977051 4.26741699 -41.22977051 4.26741699 -40.16601562 3.96313477 C-26.79055211 0.36465981 -13.77072842 -0.02876893 0 0 Z " fill="#F1F2EC" transform="translate(291.3349609375,137.684326171875)"/>
<path d="M0 0 C2.75538926 0.01605932 5.50930362 0.00006415 8.26464844 -0.01904297 C41.17481248 -0.05828373 72.467939 8.82814007 96.57714844 32.07861328 C108.33512073 43.92392074 117.16553465 59.74860665 119.38964844 76.39111328 C115.25290032 77.85281359 111.2110125 78.91009258 106.90136719 79.72314453 C105.64888184 79.96210449 104.39639648 80.20106445 103.10595703 80.44726562 C101.76303872 80.69947675 100.42010213 80.95159059 99.07714844 81.20361328 C96.29165319 81.73178454 93.50665501 82.26255197 90.72167969 82.79345703 C90.02260498 82.92633118 89.32353027 83.05920532 88.60327148 83.19610596 C84.0501714 84.06436235 79.50527068 84.96708705 74.96386719 85.89501953 C73.26194214 86.24246216 73.26194214 86.24246216 71.52563477 86.59692383 C69.39839994 87.03345528 67.27189349 87.47355577 65.14624023 87.91772461 C64.19273682 88.11261475 63.2392334 88.30750488 62.25683594 88.50830078 C61.43296387 88.67958496 60.6090918 88.85086914 59.76025391 89.02734375 C57.2681447 89.40975804 54.90697892 89.45436842 52.38964844 89.39111328 C52.10992188 88.43591797 51.83019531 87.48072266 51.54199219 86.49658203 C47.3267539 72.66600462 41.76382909 62.00193775 28.61621094 54.89111328 C16.03587215 48.82497732 -1.99427111 47.83486278 -15.42285156 52.01611328 C-20.62921343 54.15243967 -25.21844985 56.88088789 -29.61035156 60.39111328 C-30.28710938 60.91962891 -30.96386719 61.44814453 -31.66113281 61.99267578 C-42.26038838 71.33648554 -48.2975763 87.58455228 -49.61035156 101.39111328 C-50.71124825 122.63559659 -49.7834072 142.83265016 -35.29785156 159.76611328 C-25.59257695 169.89335635 -13.90527475 175.30450036 0.14892578 175.68383789 C15.18480092 175.8243763 28.58443248 173.06413655 40.18261719 162.80517578 C47.2369323 155.37003646 50.84486131 145.12604978 53.38964844 135.39111328 C61.21645625 135.94252992 68.68245113 137.4187434 76.32714844 139.14111328 C90.29328756 142.21741319 104.31270793 144.87375354 118.38964844 147.39111328 C120.94334321 158.16218806 113.03105596 171.57190436 107.49853516 180.70898438 C104.63364168 185.05489279 101.07430416 188.74202374 97.38964844 192.39111328 C96.54402344 193.27798828 95.69839844 194.16486328 94.82714844 195.07861328 C94.02277344 195.84173828 93.21839844 196.60486328 92.38964844 197.39111328 C91.86628906 197.90931641 91.34292969 198.42751953 90.80371094 198.96142578 C81.9856781 207.25856217 70.52733791 212.86744762 59.38964844 217.39111328 C58.55175781 217.73787109 57.71386719 218.08462891 56.85058594 218.44189453 C39.86869803 224.77951552 22.25391226 225.76864611 4.32714844 225.76611328 C3.49379974 225.76792603 2.66045105 225.76973877 1.80184937 225.77160645 C-32.38373945 225.76319246 -64.15722142 216.87277 -89.61035156 193.39111328 C-90.34640625 192.74787109 -91.08246094 192.10462891 -91.84082031 191.44189453 C-110.64075066 174.14295663 -119.14052351 146.93624892 -120.83325195 122.1237793 C-121.96650156 89.63647481 -114.20855778 59.81820975 -91.82519531 35.28955078 C-78.74700432 21.43884525 -62.57184487 12.25236685 -44.67285156 6.07861328 C-43.69215698 5.73310425 -43.69215698 5.73310425 -42.69165039 5.38061523 C-28.71473297 0.83615754 -14.58775013 -0.1006942 0 0 Z " fill="#F1F2EC" transform="translate(1687.6103515625,137.60888671875)"/>
<path d="M0 0 C62.7 0 125.4 0 190 0 C190 16.17 190 32.34 190 49 C169.87 49 149.74 49 129 49 C129 104.44 129 159.88 129 217 C106.89 217 84.78 217 62 217 C62 161.56 62 106.12 62 49 C41.54 49 21.08 49 0 49 C0 32.83 0 16.66 0 0 Z " fill="#F1F2EC" transform="translate(406,142)"/>
<path d="M0 0 C21.78 0 43.56 0 66 0 C66 71.61 66 143.22 66 217 C44.22 217 22.44 217 0 217 C0 145.39 0 73.78 0 0 Z " fill="#F1F2EC" transform="translate(1249,142)"/>
<path d="M0 0 C21.78 0 43.56 0 66 0 C66 71.61 66 143.22 66 217 C44.22 217 22.44 217 0 217 C0 145.39 0 73.78 0 0 Z " fill="#F2F3ED" transform="translate(610,142)"/>
<path d="M0 0 C6.28470549 5.10793965 11.51744112 12.29489179 12.75 20.375 C13.69144671 31.73213491 12.03295534 39.75592008 4.75 48.625 C-2.79513505 56.3780237 -10.48854454 59.92442727 -21.25 60.125 C-31.17280399 59.97079706 -38.89314931 56.73732642 -46.25 50 C-49.42177612 46.51181799 -51.45681092 42.70924849 -53.25 38.375 C-53.78173828 37.22064453 -53.78173828 37.22064453 -54.32421875 36.04296875 C-56.98634939 28.37109017 -56.09836517 20.15700771 -52.625 12.9375 C-47.45979233 3.86218185 -41.79110392 -1.93160427 -32.0625 -5.9375 C-20.36206321 -8.04741483 -9.95083867 -6.72302344 0 0 Z " fill="#9A1B23" transform="translate(1870.25,303.625)"/>
<path d="M0 0 C0.66 0 1.32 0 2 0 C2.51046875 1.17755859 2.51046875 1.17755859 3.03125 2.37890625 C8.05320028 13.26425062 13.78827324 18.82155554 25 23 C25 23.66 25 24.32 25 25 C24.21496094 25.3403125 23.42992187 25.680625 22.62109375 26.03125 C11.73574938 31.05320028 6.17844446 36.78827324 2 48 C1.34 48 0.68 48 0 48 C-0.3403125 47.21496094 -0.680625 46.42992187 -1.03125 45.62109375 C-6.05320028 34.73574938 -11.78827324 29.17844446 -23 25 C-23 24.34 -23 23.68 -23 23 C-22.21496094 22.6596875 -21.42992187 22.319375 -20.62109375 21.96875 C-9.73574938 16.94679972 -4.17844446 11.21172676 0 0 Z " fill="#8A8A89" transform="translate(1994,416)"/>
<path d="M0 0 C1.051875 0.639375 2.10375 1.27875 3.1875 1.9375 C12.70212766 8.91489362 12.70212766 8.91489362 15 13 C15.1875 15.75 15.1875 15.75 15 18 C14.46375 17.319375 13.9275 16.63875 13.375 15.9375 C12.199375 14.4834375 12.199375 14.4834375 11 13 C10.61070313 12.44570313 10.22140625 11.89140625 9.8203125 11.3203125 C4.96515541 4.85634596 -3.01173279 0.39060744 -11 -1 C-22.46237914 -1.79791662 -30.9438769 -0.49037846 -39.921875 6.90234375 C-46.47001537 13.5120268 -50.28989009 21.74549973 -50.25 31 C-50.25515625 32.19625 -50.2603125 33.3925 -50.265625 34.625 C-50.0093949 37.88062947 -49.22130657 40.01918398 -48 43 C-48.33 43.99 -48.66 44.98 -49 46 C-53.23653314 41.02667849 -53.13850436 36.23555177 -53.125 29.875 C-53.12757812 28.65554688 -53.13015625 27.43609375 -53.1328125 26.1796875 C-53 23 -53 23 -52 20 C-51.34 20 -50.68 20 -50 20 C-49.01 16.7 -48.02 13.4 -47 10 C-46.34 10 -45.68 10 -45 10 C-45 9.34 -45 8.68 -45 8 C-44.34 8 -43.68 8 -43 8 C-43 7.34 -43 6.68 -43 6 C-33.05880431 -5.87514844 -12.83265698 -8.03075953 0 0 Z " fill="#331112" transform="translate(1866,299)"/>
<path d="M0 0 C3.9212551 3.9212551 4.38931647 9.21000305 4.625 14.5625 C4.47379759 25.57701403 -2.34844243 33.62641951 -9.45703125 41.51171875 C-12.22491488 44.18150018 -14.96471616 45.43041316 -18.5625 46.5625 C-20.81449343 47.27618593 -22.88644704 47.94322352 -25 49 C-33.85819293 49.72627657 -41.06371116 49.09614908 -49 45 C-49 44.34 -49 43.68 -49 43 C-49.721875 42.7525 -50.44375 42.505 -51.1875 42.25 C-56.21963294 40.01349647 -60.0003057 36.61491431 -63 32 C-62.6015625 29.84375 -62.6015625 29.84375 -62 28 C-61.6596875 28.50789063 -61.319375 29.01578125 -60.96875 29.5390625 C-55.82326386 36.84674761 -49.6751516 42.28150435 -41 45 C-31.49517714 46.54293942 -21.91955196 45.84161868 -13.5546875 40.89453125 C-6.31311729 35.52425364 -0.99132586 28.91657377 1 20 C1.55311501 13.27444212 1.23366676 6.63095885 0 0 Z " fill="#321112" transform="translate(1881,317)"/>
<path d="M0 0 C0 0.33 0 0.66 0 1 C-6.38320698 1.12516092 -6.38320698 1.12516092 -9.40625 0.51171875 C-17.21812358 -1.0294792 -23.78068095 -0.15024831 -31 3 C-31.66 3 -32.32 3 -33 3 C-33 3.66 -33 4.32 -33 5 C-33.86625 5.495 -34.7325 5.99 -35.625 6.5 C-40.40250673 9.66990968 -43.02817966 13.64791623 -45 19 C-46.23775906 25.59339613 -46.6474399 32.3091495 -47 39 C-49.76292937 36.23707063 -49.39758352 34.49122212 -49.5 30.625 C-49.35928814 20.82542436 -45.29128588 12.5929888 -38.62890625 5.4609375 C-27.62025412 -4.41252988 -13.40796743 -5.45408845 0 0 Z " fill="#7C252A" transform="translate(1864,300)"/>
<path d="M0 0 C2.03654295 2.03654295 2.86522597 3.62830869 4.125 6.1875 C7.9586844 13.15987338 13.82818743 18.3561608 21.2421875 21.33984375 C28.13488329 22.98979501 37.82798407 23.80753215 44.1875 20.1875 C45.115625 19.465625 46.04375 18.74375 47 18 C50.0195166 16.10402446 52.47771528 14.65227495 56 14 C52.50937122 19.81771463 47.33729085 22.23844797 41 24 C29.99051017 25.65155291 20.25438666 24.58122003 11 18 C5.84579335 13.97239589 2.17506479 9.21447082 0 3 C0 2.01 0 1.02 0 0 Z " fill="#7D262B" transform="translate(1817,339)"/>
<path d="M0 0 C3.40631672 2.63215383 4.36029269 5.90165534 5 10 C5.88076266 20.08276061 4.79470909 28.62591111 -1.75 36.625 C-2.4925 37.40875 -3.235 38.1925 -4 39 C-4 35.32047642 -2.91125196 32.85714024 -1.5625 29.4375 C-1.11003906 28.28121094 -0.65757813 27.12492187 -0.19140625 25.93359375 C0.48569173 24.26637872 1.19525561 22.60948877 2 21 C2.12271508 18.85676694 2.17553395 16.70920998 2.1875 14.5625 C2.20167969 13.40878906 2.21585938 12.25507813 2.23046875 11.06640625 C2.23925088 7.82719832 2.23925088 7.82719832 0 5 C-0.125 2.3125 -0.125 2.3125 0 0 Z " fill="#8A242A" transform="translate(1878,314)"/>
<path d="M0 0 C4.16411839 4.16411839 4.29423293 9.48656517 4.3125 15.125 C4.32925781 16.32382812 4.34601563 17.52265625 4.36328125 18.7578125 C3.97965495 22.18157414 3.32756986 23.5311792 1 26 C1.01740234 24.06447266 1.01740234 24.06447266 1.03515625 22.08984375 C1.0445412 20.37239729 1.05364064 18.65494925 1.0625 16.9375 C1.07087891 16.08994141 1.07925781 15.24238281 1.08789062 14.36914062 C1.10683006 9.4638278 0.83326345 4.83555245 0 0 Z " fill="#2F1111" transform="translate(1881,317)"/>
<path d="M0 0 C2.24177251 2.16122979 4.17343464 4.45204204 6.125 6.875 C9.82211699 11.1658724 13.91839786 13.60323527 19 16 C19 16.33 19 16.66 19 17 C17.35 17 15.7 17 14 17 C14 16.34 14 15.68 14 15 C12.9171875 14.62875 12.9171875 14.62875 11.8125 14.25 C6.73994459 11.99553093 3.09598227 8.58664039 0 4 C0 2.68 0 1.36 0 0 Z " fill="#3D1113" transform="translate(1818,345)"/>
<path d="M0 0 C0.33 0 0.66 0 1 0 C1.5750036 10.19034159 0.88821616 18.51162469 -5.75 26.625 C-6.4925 27.40875 -7.235 28.1925 -8 29 C-8 25.89448334 -7.4606285 24.64738916 -6 22 C-5.34 22 -4.68 22 -4 22 C-1.42388772 14.67671225 -0.38577055 7.74201581 0 0 Z " fill="#722529" transform="translate(1882,324)"/>
<path d="M0 0 C0.33 0.99 0.66 1.98 1 3 C-7.35873272 6.58231402 -15.07985057 6.29551415 -24 6 C-24 5.67 -24 5.34 -24 5 C-23.02160156 4.97421875 -22.04320312 4.9484375 -21.03515625 4.921875 C-13.31601212 4.58791006 -6.81117837 3.96857276 0 0 Z " fill="#461314" transform="translate(1867,358)"/>
<path d="M0 0 C4.98012761 1.50912958 8.24259942 4.55661849 12 8 C11.67 8.66 11.34 9.32 11 10 C10.01 9.34 9.02 8.68 8 8 C8 7.34 8 6.68 8 6 C7.4225 5.7525 6.845 5.505 6.25 5.25 C3.6997003 3.83316683 1.98214299 2.12372463 0 0 Z " fill="#7F282C" transform="translate(1864,301)"/>
<path d="M0 0 C0.66 0.33 1.32 0.66 2 1 C-0.64 3.64 -3.28 6.28 -6 9 C-6 5.06368636 -4.57142871 3.87394974 -2 1 C-1.34 0.67 -0.68 0.34 0 0 Z " fill="#8E1F25" transform="translate(1829,305)"/>
<path d="M0 0 C0.99 0.33 1.98 0.66 3 1 C2.04882866 2.1725131 1.08882991 3.33787015 0.125 4.5 C-0.40867187 5.1496875 -0.94234375 5.799375 -1.4921875 6.46875 C-1.98976563 6.9740625 -2.48734375 7.479375 -3 8 C-3.66 8 -4.32 8 -5 8 C-3.8141763 4.62496331 -2.72426311 2.35277269 0 0 Z " fill="#272723" transform="translate(268,190)"/>
<path d="M0 0 C2.7972908 2.06756277 3.02692273 3.14440371 3.6875 6.6875 C3.790625 7.780625 3.89375 8.87375 4 10 C0.06153846 5.69230769 0.06153846 5.69230769 -0.25 2.1875 C-0.1675 1.465625 -0.085 0.74375 0 0 Z " fill="#73242A" transform="translate(1878,314)"/>
</svg>
